<mxfile host="app.diagrams.net" modified="2023-12-24T16:35:04.764Z" agent="Mozilla/5.0 (Macintosh; Intel Mac OS X 10_15_7) AppleWebKit/537.36 (KHTML, like Gecko) Chrome/119.0.0.0 Safari/537.36" etag="r-haUVuijurDqbeVcOmi" version="22.1.11" type="github">
  <diagram name="Page-1" id="ChwvIAfD-OuzPx4oC-Rl">
    <mxGraphModel dx="1434" dy="786" grid="1" gridSize="10" guides="1" tooltips="1" connect="1" arrows="1" fold="1" page="1" pageScale="1" pageWidth="850" pageHeight="1100" math="0" shadow="0">
      <root>
        <mxCell id="0" />
        <mxCell id="1" parent="0" />
        <mxCell id="i2gY0xGtp7ibQS8OvG0P-3" value="Caculature" style="swimlane;whiteSpace=wrap;html=1;" vertex="1" parent="1">
          <mxGeometry x="370" y="140" width="140" height="150" as="geometry" />
        </mxCell>
        <mxCell id="i2gY0xGtp7ibQS8OvG0P-8" value="State:&amp;nbsp; - temperature: &#39;&#39;&lt;br&gt;&amp;nbsp; &amp;nbsp;- scale: &#39;c&#39;" style="text;html=1;align=center;verticalAlign=middle;resizable=0;points=[];autosize=1;strokeColor=none;fillColor=none;" vertex="1" parent="i2gY0xGtp7ibQS8OvG0P-3">
          <mxGeometry y="45" width="140" height="40" as="geometry" />
        </mxCell>
        <mxCell id="i2gY0xGtp7ibQS8OvG0P-4" value="APP" style="swimlane;whiteSpace=wrap;html=1;" vertex="1" parent="1">
          <mxGeometry x="370" width="140" height="90" as="geometry" />
        </mxCell>
        <mxCell id="i2gY0xGtp7ibQS8OvG0P-6" value="BoilingVerdict" style="swimlane;whiteSpace=wrap;html=1;" vertex="1" parent="1">
          <mxGeometry x="110" y="410" width="140" height="150" as="geometry" />
        </mxCell>
        <mxCell id="i2gY0xGtp7ibQS8OvG0P-9" value="props: Celsius" style="text;html=1;align=center;verticalAlign=middle;resizable=0;points=[];autosize=1;strokeColor=none;fillColor=none;" vertex="1" parent="i2gY0xGtp7ibQS8OvG0P-6">
          <mxGeometry x="20" y="40" width="100" height="30" as="geometry" />
        </mxCell>
        <mxCell id="i2gY0xGtp7ibQS8OvG0P-7" value="TemperatureInput" style="swimlane;whiteSpace=wrap;html=1;" vertex="1" parent="1">
          <mxGeometry x="510" y="440" width="190" height="150" as="geometry" />
        </mxCell>
        <mxCell id="i2gY0xGtp7ibQS8OvG0P-10" value="&lt;div style=&quot;text-align: left;&quot;&gt;&lt;span style=&quot;background-color: initial;&quot;&gt;props:&amp;nbsp; - title&lt;/span&gt;&lt;/div&gt;&lt;div style=&quot;text-align: left;&quot;&gt;&lt;span style=&quot;background-color: initial;&quot;&gt;&lt;span style=&quot;white-space: pre;&quot;&gt;&#x9;&lt;/span&gt;&amp;nbsp; &amp;nbsp; - temperature&lt;/span&gt;&lt;/div&gt;&lt;div style=&quot;text-align: left;&quot;&gt;&lt;span style=&quot;background-color: initial;&quot;&gt;&amp;nbsp; &amp;nbsp; &amp;nbsp; &amp;nbsp; &amp;nbsp; &amp;nbsp; - ontemperatureChange&lt;/span&gt;&lt;/div&gt;" style="text;html=1;align=center;verticalAlign=middle;resizable=0;points=[];autosize=1;strokeColor=none;fillColor=none;" vertex="1" parent="i2gY0xGtp7ibQS8OvG0P-7">
          <mxGeometry y="40" width="190" height="60" as="geometry" />
        </mxCell>
        <mxCell id="i2gY0xGtp7ibQS8OvG0P-12" value="" style="endArrow=classic;html=1;rounded=0;entryX=0.5;entryY=0;entryDx=0;entryDy=0;exitX=0.5;exitY=1;exitDx=0;exitDy=0;" edge="1" parent="1" source="i2gY0xGtp7ibQS8OvG0P-4" target="i2gY0xGtp7ibQS8OvG0P-3">
          <mxGeometry width="50" height="50" relative="1" as="geometry">
            <mxPoint x="240" y="390" as="sourcePoint" />
            <mxPoint x="290" y="340" as="targetPoint" />
            <Array as="points">
              <mxPoint x="440" y="120" />
            </Array>
          </mxGeometry>
        </mxCell>
        <mxCell id="i2gY0xGtp7ibQS8OvG0P-13" value="" style="endArrow=classic;html=1;rounded=0;exitX=0.5;exitY=1;exitDx=0;exitDy=0;" edge="1" parent="1" source="i2gY0xGtp7ibQS8OvG0P-3">
          <mxGeometry width="50" height="50" relative="1" as="geometry">
            <mxPoint x="440" y="320" as="sourcePoint" />
            <mxPoint x="180" y="400" as="targetPoint" />
            <Array as="points" />
          </mxGeometry>
        </mxCell>
        <mxCell id="i2gY0xGtp7ibQS8OvG0P-14" value="" style="endArrow=classic;html=1;rounded=0;" edge="1" parent="1">
          <mxGeometry width="50" height="50" relative="1" as="geometry">
            <mxPoint x="440" y="290" as="sourcePoint" />
            <mxPoint x="530" y="420" as="targetPoint" />
            <Array as="points" />
          </mxGeometry>
        </mxCell>
      </root>
    </mxGraphModel>
  </diagram>
</mxfile>
